<svg width="40" height="40" viewBox="0 0 40 40" fill="none" xmlns="http://www.w3.org/2000/svg">
<path fill-rule="evenodd" clip-rule="evenodd" d="M15 18.3333C18.6819 18.3333 21.6667 15.3486 21.6667 11.6667C21.6667 7.98477 18.6819 5 15 5C11.3181 5 8.33337 7.98477 8.33337 11.6667C8.33337 15.3486 11.3181 18.3333 15 18.3333ZM28.3334 21.6667C31.0948 21.6667 33.3334 19.4281 33.3334 16.6667C33.3334 13.9052 31.0948 11.6667 28.3334 11.6667C25.5719 11.6667 23.3334 13.9052 23.3334 16.6667C23.3334 19.4281 25.5719 21.6667 28.3334 21.6667ZM36.6667 31.6667C36.6667 32.5871 35.9205 33.3333 35 33.3333H26.6667C26.6667 34.2538 25.9205 35 25 35H5.00004C4.07957 35 3.33337 34.2538 3.33337 33.3333C3.33975 28.6217 6.17961 24.3763 10.5321 22.5719C14.8846 20.7675 19.8952 21.7582 23.2334 25.0833C25.7466 23.1385 29.1471 22.7923 32.0006 24.1908C34.8542 25.5892 36.664 28.4889 36.6667 31.6667Z" fill="white"/>
</svg>
